<?xml version="1.0" encoding="UTF-8" standalone="no"?>
<!-- Created with Inkscape (http://www.inkscape.org/) -->

<svg
   xmlns:dc="http://purl.org/dc/elements/1.1/"
   xmlns:cc="http://creativecommons.org/ns#"
   xmlns:rdf="http://www.w3.org/1999/02/22-rdf-syntax-ns#"
   xmlns:svg="http://www.w3.org/2000/svg"
   xmlns="http://www.w3.org/2000/svg"
   xmlns:sodipodi="http://sodipodi.sourceforge.net/DTD/sodipodi-0.dtd"
   xmlns:inkscape="http://www.inkscape.org/namespaces/inkscape"
   width="297mm"
   height="210mm"
   viewBox="0 0 1052.3622 744.09448"
   id="svg4175"
   version="1.1"
   inkscape:version="0.91 r13725"
   sodipodi:docname="ce-mark-official.svg">
  <defs
     id="defs4177" />
  <sodipodi:namedview
     id="base"
     pagecolor="#ffffff"
     bordercolor="#666666"
     borderopacity="1.0"
     inkscape:pageopacity="0.0"
     inkscape:pageshadow="2"
     inkscape:zoom="0.49497475"
     inkscape:cx="279.47488"
     inkscape:cy="539.25645"
     inkscape:document-units="px"
     inkscape:current-layer="layer1"
     showgrid="false"
     showguides="true"
     inkscape:guide-bbox="true"
     inkscape:window-width="1920"
     inkscape:window-height="1005"
     inkscape:window-x="-9"
     inkscape:window-y="-9"
     inkscape:window-maximized="1" />
  <metadata
     id="metadata4180">
    <rdf:RDF>
      <cc:Work
         rdf:about="">
        <dc:format>image/svg+xml</dc:format>
        <dc:type
           rdf:resource="http://purl.org/dc/dcmitype/StillImage" />
        <dc:title></dc:title>
      </cc:Work>
    </rdf:RDF>
  </metadata>
  <g
     inkscape:label="Layer 1"
     inkscape:groupmode="layer"
     id="layer1"
     transform="translate(0,-308.26772)">
    <path
       style="fill:#000000"
       d="M 402.46997,901.65511 C 341.44032,896.15725 287.13601,870.98388 244.64631,828.49419 183.17459,767.02246 157.97853,679.55983 177.04092,593.81681 c 1.18278,-5.32014 4.14642,-15.72911 6.58588,-23.13104 34.94211,-106.0233 136.70792,-176.76548 248.1731,-172.51676 7.86456,0.29978 15.15083,0.76965 16.19173,1.04415 l 1.89254,0.49911 0,37.78777 0,37.78776 -6.51875,-0.66592 c -12.94377,-1.32227 -38.488,-0.67788 -49.41631,1.24659 -27.52762,4.84761 -51.871,15.11024 -75.38188,31.77932 -9.0864,6.44221 -31.6816,29.03741 -38.12381,38.12381 -16.50693,23.28217 -26.66955,47.25067 -31.78353,74.96133 -1.49437,8.09747 -1.78513,12.8925 -1.78513,29.43951 0,16.547 0.29076,21.34203 1.78513,29.4395 5.11398,27.71066 15.2766,51.67916 31.78353,74.96133 6.44221,9.0864 29.03741,31.6816 38.12381,38.12381 23.51088,16.66908 47.85426,26.93171 75.38188,31.77932 10.92831,1.92447 36.47254,2.56886 49.41631,1.24659 l 6.51875,-0.66592 0,37.78777 0,37.78777 -1.89254,0.52592 c -3.28042,0.91161 -36.84952,1.27781 -45.52166,0.49658 z m 428.97563,-8.4e-4 C 770.43143,896.16401 716.11139,870.98364 673.62195,828.49419 645.44991,800.32215 624.9451,767.1099 612.60243,729.6591 c -17.1958,-52.17645 -17.1958,-106.79688 0,-158.97333 34.98696,-106.1594 136.45847,-176.61787 248.47324,-172.53163 8.02963,0.29292 14.9374,0.74152 15.3506,0.99689 0.42292,0.26138 0.75128,16.98906 0.75128,38.27282 l 0,37.8085 -4.83649,-0.63819 c -2.66007,-0.35101 -12.59591,-0.61548 -22.07963,-0.58772 -13.71942,0.0402 -19.3058,0.4172 -27.33668,1.84499 -27.64684,4.91527 -51.89134,15.14169 -75.38189,31.79636 -9.0864,6.44221 -31.6816,29.03741 -38.1238,38.12381 -12.56013,17.71542 -21.53985,36.0002 -27.03609,55.05179 -1.57887,5.47279 -2.87067,10.29877 -2.87067,10.72439 0,0.46517 29.35877,0.77386 73.59876,0.77386 l 73.59876,0 0,37.8508 0,37.85079 -73.59876,0 c -44.23999,0 -73.59876,0.30869 -73.59876,0.77386 0,0.42562 1.2918,5.2516 2.87067,10.7244 5.49624,19.05158 14.47596,37.33636 27.03609,55.05178 6.4422,9.0864 29.0374,31.6816 38.1238,38.12381 23.49055,16.65467 47.73505,26.88109 75.38189,31.79636 8.03088,1.4278 13.61726,1.80483 27.33668,1.845 9.48372,0.0277 19.41956,-0.23672 22.07963,-0.58773 l 4.83649,-0.63819 0,37.80851 c 0,24.37753 -0.29975,37.99375 -0.84378,38.32998 -1.42906,0.8832 -36.09362,1.19461 -44.88817,0.40325 z"
       id="path4849"
       inkscape:connector-curvature="0" />
  </g>
</svg>
