<svg xmlns="http://www.w3.org/2000/svg" viewBox="0 0 90.42 87.29"><defs><style>.cls-1{fill:#d32328;}.cls-2{fill:#fef4f4;}</style></defs><g id="Layer_2" data-name="Layer 2"><g id="Layer_1-2" data-name="Layer 1"><ellipse class="cls-1" cx="16" cy="70.3" rx="14.37" ry="16" transform="translate(-54.6 84.9) rotate(-88.86)"/><rect class="cls-1" x="-11.45" y="26.7" width="56" height="32" transform="translate(-26.47 58.4) rotate(-88.86)"/><circle class="cls-1" cx="74.42" cy="17.13" r="16"/><circle class="cls-1" cx="17.08" cy="16" r="16"/><rect class="cls-1" x="17.39" y="0.56" width="56.74" height="32" transform="translate(91.19 34.02) rotate(-178.86)"/><polygon class="cls-1" points="45.03 19.68 84.51 60.59 61.99 82.15 22.51 41.24 45.03 19.68"/><ellipse class="cls-1" cx="73.65" cy="71.82" rx="15.75" ry="15.47"/><rect class="cls-2" x="19.31" y="12.4" width="3.56" height="13.49" transform="translate(-7.36 20.53) rotate(-45.03)"/><circle class="cls-2" cx="16.65" cy="14.71" r="1.82"/><circle class="cls-2" cx="26.03" cy="24.08" r="1.82"/><rect class="cls-2" x="34.95" y="28.02" width="3.56" height="13.49" transform="translate(-13.83 36.18) rotate(-45.03)"/><circle class="cls-2" cx="31.57" cy="29.62" r="1.82"/><circle class="cls-2" cx="41.28" cy="39.32" r="1.82"/><rect class="cls-2" x="50.64" y="43.7" width="3.56" height="13.49" transform="translate(-20.32 51.88) rotate(-45.03)"/><circle class="cls-2" cx="47.26" cy="45.29" r="1.82"/><circle class="cls-2" cx="56.98" cy="55" r="1.82"/><rect class="cls-2" x="67.48" y="60.53" width="3.56" height="13.49" transform="translate(-27.28 68.73) rotate(-45.03)"/><circle class="cls-2" cx="64.1" cy="62.12" r="1.82"/><circle class="cls-2" cx="73.82" cy="71.82" r="1.82"/></g></g></svg>